<svg xmlns="http://www.w3.org/2000/svg" version="1.1" xmlns:xlink="http://www.w3.org/1999/xlink" width="512" height="512"><svg xmlns="http://www.w3.org/2000/svg" version="1.1" xmlns:xlink="http://www.w3.org/1999/xlink" width="512" height="512"><svg id="Layer_1" xmlns="http://www.w3.org/2000/svg" version="1.1" viewBox="0 0 512 512">
  <!-- Generator: Adobe Illustrator 30.1.0, SVG Export Plug-In . SVG Version: 2.1.1 Build 136)  -->
  <defs>
    <style>
      .st0 {
        fill: #fff;
      }
    </style>
  </defs>
  <rect width="512" height="512" rx="93.2" ry="93.2"></rect>
  <g>
    <path class="st0" d="M94.7,226.2c-3.5-3-6.5-5-10-6.5-3.5-1-7-2-10-2s-7.5,1-10,3-4,4.5-4,7.5.5,4,2,5c1,1.5,3,3,5,4l7,2.5,7.5,2.5c10.5,3.5,18.1,8,22.6,13.5,5,6,7.5,13.5,7.5,22.6s-1,12-3,16.5c-2,5.5-5,9.5-9,13s-9,6.5-15,8.5c-21.4,6.2-44.5,2.3-62.7-10.5l14-25.6c4.5,4,9,7,14,9s9,3,13.5,3,9-1,11.5-3.5c2.5-2,3.5-5,3.5-8l-.5-4.5-3.5-3.5c-1.5-1.5-3.5-2.5-6-3l-8.5-3.5-12-4c-4-2-7.5-4-10.5-6.5-3-2.5-5.5-5.5-7.5-9.5s-2.5-9-2.5-15,.5-11.5,3-16.5c1.5-5,4.5-9,8-12.5,8.6-7,19.5-10.8,30.6-10.5,13.1,0,26.1,3.2,37.6,9.5l-12.5,25.1Z"></path>
    <path class="st0" d="M154.4,244.2l40.6-52.7h41.1l-50.6,60.7,55.7,67.7h-43.6l-43.1-56.2v55.7h-33.1v-127.9h33.1v52.7Z"></path>
    <path class="st0" d="M291.8,319.9c-35.4,0-64.2-28.8-64.2-64.2s28.8-64.2,64.2-64.2,64.2,28.8,64.2,64.2-28.8,64.2-64.2,64.2ZM291.8,219.6c-19.9,0-36.1,16.2-36.1,36.1s16.2,36.1,36.1,36.1,36.1-16.2,36.1-36.1-16.2-36.1-36.1-36.1Z"></path>
    <path class="st0" d="M403.1,244.2l40.6-52.7h41.1l-50.6,60.7,55.2,67.2h-43.1l-43.1-55.7v55.7h-33.1v-127.9h33.1v52.7Z"></path>
  </g>
</svg></svg><style>@media (prefers-color-scheme: light) { :root { filter: none; } }
@media (prefers-color-scheme: dark) { :root { filter: none; } }
</style></svg>